<?xml version="1.0" standalone="no"?>
<!DOCTYPE svg PUBLIC "-//W3C//DTD SVG 20010904//EN"
 "http://www.w3.org/TR/2001/REC-SVG-20010904/DTD/svg10.dtd">
<svg version="1.0" xmlns="http://www.w3.org/2000/svg"
 width="617.000000pt" height="617.000000pt" viewBox="0 0 617.000000 617.000000"
 preserveAspectRatio="xMidYMid meet">
<metadata>
Created by potrace 1.11, written by Peter Selinger 2001-2013
</metadata>
<g transform="translate(0.000000,617.000000) scale(0.100000,-0.100000)"
fill="#000000" stroke="none">
<path d="M253 4662 c-18 -2 -33 -5 -33 -8 0 -3 33 -69 74 -147 40 -78 129
-250 196 -382 67 -132 149 -289 180 -350 32 -60 108 -209 170 -330 63 -121
144 -278 181 -350 l68 -130 121 0 121 0 90 175 c50 96 140 272 201 390 61 118
159 310 219 425 60 116 126 245 146 287 21 43 42 76 46 75 5 -1 49 -81 99
-177 49 -96 131 -256 182 -355 51 -99 153 -297 227 -440 73 -143 147 -287 165
-320 l33 -60 120 -1 120 -2 44 87 c24 47 85 167 136 266 51 99 134 259 183
355 50 96 123 238 163 315 40 77 130 253 200 390 70 138 132 256 138 263 5 7
7 15 4 18 -6 6 -327 8 -331 2 -2 -2 -148 -293 -325 -648 -178 -355 -326 -648
-330 -652 -3 -4 -155 288 -336 650 l-330 657 -158 0 c-88 0 -162 -2 -165 -5
-4 -3 -144 -279 -312 -615 -168 -335 -316 -630 -329 -654 l-24 -43 -324 648
c-179 357 -328 652 -332 656 -7 8 -242 15 -298 10z"/>
<path d="M4067 4583 c-2 -5 -37 -93 -77 -198 -39 -104 -78 -203 -85 -220 -6
-16 -51 -133 -99 -260 -48 -126 -92 -239 -97 -250 -8 -19 -608 -1577 -654
-1700 -13 -33 -28 -73 -34 -88 -6 -16 -11 -30 -11 -33 0 -2 75 -4 168 -4 l167
0 88 233 c49 127 93 241 98 252 5 11 20 52 35 90 14 39 49 131 79 205 29 74
144 371 255 660 111 289 222 575 245 635 35 88 220 568 256 663 l9 22 -170 0
c-93 0 -171 -3 -173 -7z"/>
<path d="M3769 2107 c0 -11 0 -196 1 -254 l0 -23 1080 0 1081 0 -2 145 -2 144
-1078 0 c-815 -1 -1079 -4 -1080 -12z"/>
</g>
</svg>
